HIERARCHY
ROOT Hips
{
  OFFSET 0.00 0.00 0.00
  CHANNELS 6 Xposition Yposition Zposition Zrotation Xrotation Yrotation
  JOINT LeftUpLeg
  {
    OFFSET 3.43 0.00 0.00
    CHANNELS 3 Zrotation Xrotation Yrotation
    JOINT LeftLowLeg
    {
      OFFSET 0.0000 -18.47 0.00
      CHANNELS 3 Zrotation Xrotation Yrotation
      JOINT LeftFoot
      {
        OFFSET 0.00 -17.95 0.00
        CHANNELS 3 Zrotation Xrotation Yrotation
        End Site
        {
          OFFSET 0.00 -3.12 0.00
        }
      }
    }
  }
  JOINT RightUpLeg
  {
    OFFSET -3.43 0.00 0.00
    CHANNELS 3 Zrotation Xrotation Yrotation
    JOINT RightLowLeg
    {
      OFFSET 0.00 -18.47 0.00
      CHANNELS 3 Zrotation Xrotation Yrotation
      JOINT RightFoot
      {
        OFFSET 0.00 -17.95 0.00
        CHANNELS 3 Zrotation Xrotation Yrotation
        End Site
        {
          OFFSET 0.00 -3.12 0.00
        }
      }
    }
  }
  JOINT Chest
  {
    OFFSET 0.00 4.57 0.00
    CHANNELS 3 Zrotation Xrotation Yrotation
    JOINT LeftCollar
    {
      OFFSET 1.06 15.33 1.76
      CHANNELS 3 Zrotation Xrotation Yrotation
      JOINT LeftUpArm
      {
        OFFSET 5.81 0.00 0.00
        CHANNELS 3 Zrotation Xrotation Yrotation
        JOINT LeftLowArm
        {
          OFFSET 0.00 -12.08 0.00
          CHANNELS 3 Zrotation Xrotation Yrotation
          JOINT LeftHand
          {
            OFFSET 0.00 -9.82 0.00
            CHANNELS 3 Zrotation Xrotation Yrotation
            End Site
            {
              OFFSET 0.00 -7.37 0.00
            }
          }
        }
      }
    }
    JOINT RightCollar
    {
      OFFSET -1.06 15.33 1.76
      CHANNELS 3 Zrotation Xrotation Yrotation
      JOINT RightUpArm
      {
        OFFSET -5.81 0.00 0.00
        CHANNELS 3 Zrotation Xrotation Yrotation
        JOINT RightLowArm
        {
          OFFSET 0.00 -12.08 0.00
          CHANNELS 3 Zrotation Xrotation Yrotation
          JOINT RightHand
          {
            OFFSET 0.00 -9.82 0.00
            CHANNELS 3 Zrotation Xrotation Yrotation
            End Site
            {
              OFFSET 0.00 -7.37 0.00
            }
          }
        }
      }
    }
    JOINT Neck
    {
      OFFSET 0.00 17.62 0.00
      CHANNELS 3 Zrotation Xrotation Yrotation
      JOINT Head
      {
        OFFSET 0.00 5.19 0.00
        CHANNELS 3 Zrotation Xrotation Yrotation
        End Site
        {
          OFFSET 0.00 4.14 0.00
        }
      }
    }
  }
}
MOTION
Frames:	28
Frame Time:	0.033333
-8.12	-17.13	-42.88	3.58	-0.61	-29.47	0.19	-13.35	2.93	0.15	28.27	-0.15	-1.80	-16.01	11.76	-8.96	-12.53	-9.80	-0.15	32.15	0.16	3.22	-20.11	-3.81	-4.90	1.47	-1.90	-8.13	0.37	-0.39	29.64	19.59	-3.20	0.29	-46.19	0.46	-16.51	8.86	-27.51	21.07	-3.26	-8.66	-45.22	28.43	9.40	-0.30	-47.71	-0.47	8.30	21.39	23.11	13.21	-22.06	-2.55	-14.75	25.53	4.27
-8.11	-17.12	-42.88	3.75	-0.66	-29.48	-0.15	-13.27	2.45	0.15	28.03	-0.15	-1.79	-15.91	12.16	-9.23	-12.59	-10.02	-0.15	32.20	0.16	3.29	-20.11	-3.51	-5.10	1.39	-1.89	-8.12	0.38	-0.42	29.64	19.63	-3.20	0.29	-46.20	0.46	-16.46	8.86	-27.52	21.34	-3.41	-8.95	-45.76	28.29	9.93	-0.30	-47.83	-0.48	8.22	21.51	22.94	12.98	-21.88	-2.60	-14.56	25.57	4.15
-8.10	-17.11	-42.87	3.98	-0.75	-29.49	-0.57	-13.15	1.91	0.14	27.71	-0.15	-1.72	-15.78	12.69	-9.59	-12.63	-10.29	-0.15	32.25	0.16	3.40	-20.12	-3.13	-5.37	1.30	-1.87	-8.13	0.39	-0.45	29.66	19.70	-3.23	0.29	-46.29	0.46	-16.40	8.88	-27.48	21.51	-3.56	-9.26	-46.23	28.14	10.57	-0.30	-47.95	-0.48	8.17	21.63	22.66	12.52	-21.61	-2.69	-14.06	25.60	3.83
-8.08	-17.10	-42.85	4.16	-0.87	-29.48	-0.95	-13.01	1.47	0.14	27.48	-0.15	-1.65	-15.68	13.17	-9.94	-12.64	-10.56	-0.15	32.36	0.16	3.50	-20.15	-2.76	-5.63	1.28	-1.86	-8.16	0.41	-0.50	29.72	19.79	-3.31	0.29	-46.46	0.47	-16.37	8.92	-27.37	21.43	-3.65	-9.48	-46.41	28.08	11.11	-0.30	-48.13	-0.48	8.20	21.77	22.35	11.80	-21.31	-2.82	-13.23	25.66	3.31
-8.08	-17.11	-42.85	4.17	-1.02	-29.40	-1.08	-12.88	1.28	0.14	27.45	-0.15	-1.60	-15.67	13.35	-10.07	-12.52	-10.70	-0.15	32.43	0.16	3.55	-20.19	-2.63	-5.71	1.42	-1.87	-8.18	0.42	-0.55	29.77	19.82	-3.41	0.30	-46.58	0.47	-16.47	8.89	-27.21	21.38	-3.70	-9.60	-46.52	28.13	11.40	-0.31	-48.42	-0.48	8.34	21.92	22.08	11.24	-21.13	-2.90	-12.53	25.72	2.93
-8.08	-17.11	-42.83	4.00	-1.15	-29.26	-1.00	-12.75	1.28	0.14	27.60	-0.15	-1.58	-15.74	13.26	-9.99	-12.26	-10.71	-0.15	32.41	0.16	3.54	-20.22	-2.74	-5.59	1.64	-1.91	-8.20	0.44	-0.61	29.78	19.85	-3.50	0.30	-46.72	0.47	-16.66	8.84	-27.05	21.36	-3.73	-9.67	-46.61	28.25	11.47	-0.31	-48.74	-0.48	8.54	22.05	21.90	11.11	-21.10	-2.88	-12.36	25.78	2.91
-8.09	-17.12	-42.82	3.69	-1.24	-29.07	-0.74	-12.64	1.38	0.14	27.87	-0.15	-1.59	-15.87	12.97	-9.71	-11.90	-10.62	-0.15	32.29	0.16	3.49	-20.23	-3.06	-5.31	1.91	-2.01	-8.22	0.46	-0.67	29.76	19.88	-3.54	0.30	-46.81	0.47	-16.92	8.76	-26.93	21.35	-3.75	-9.70	-46.69	28.39	11.42	-0.31	-49.04	-0.49	8.71	22.14	21.78	11.43	-21.19	-2.78	-12.78	25.82	3.28
-8.10	-17.12	-42.80	3.32	-1.28	-28.84	-0.37	-12.54	1.53	0.15	28.10	-0.15	-1.64	-15.98	12.55	-9.30	-11.48	-10.44	-0.15	32.00	0.16	3.42	-20.17	-3.54	-4.91	2.14	-2.16	-8.29	0.49	-0.73	29.73	19.92	-3.53	0.30	-46.80	0.47	-17.26	8.68	-26.91	21.34	-3.75	-9.71	-46.75	28.48	11.35	-0.31	-49.16	-0.49	8.79	22.12	21.72	12.14	-21.35	-2.60	-13.74	25.86	3.98
-8.10	-17.11	-42.80	3.05	-1.27	-28.65	-0.10	-12.49	1.61	0.15	28.24	-0.15	-1.71	-16.02	12.14	-8.98	-11.18	-10.34	-0.15	31.73	0.16	3.36	-20.08	-3.90	-4.60	2.29	-2.32	-8.41	0.49	-0.74	29.76	19.95	-3.48	0.30	-46.81	0.47	-17.62	8.70	-26.97	21.36	-3.74	-9.68	-46.82	28.50	11.36	-0.31	-49.18	-0.49	8.82	22.06	21.69	12.72	-21.50	-2.43	-14.61	25.93	4.59
-8.10	-17.11	-42.80	2.94	-1.26	-28.54	0.02	-12.51	1.64	0.15	28.32	-0.15	-1.79	-16.04	11.82	-8.86	-11.07	-10.34	-0.15	31.64	0.16	3.33	-20.05	-4.05	-4.45	2.37	-2.42	-8.52	0.50	-0.73	29.82	20.02	-3.44	0.30	-46.91	0.47	-17.95	8.80	-27.07	21.37	-3.72	-9.63	-46.91	28.52	11.44	-0.31	-49.20	-0.49	8.87	22.00	21.67	13.08	-21.63	-2.29	-15.17	26.00	4.98
-8.09	-17.12	-42.81	3.00	-1.25	-28.55	-0.04	-12.59	1.61	0.15	28.37	-0.15	-1.89	-16.03	11.62	-8.95	-11.19	-10.44	-0.15	31.76	0.16	3.34	-20.08	-3.94	-4.49	2.38	-2.40	-8.61	0.50	-0.73	29.92	20.10	-3.41	0.30	-47.10	0.47	-18.22	8.96	-27.15	21.39	-3.70	-9.58	-47.00	28.54	11.59	-0.31	-49.29	-0.49	8.96	21.99	21.66	13.19	-21.74	-2.20	-15.33	26.07	5.11
-8.07	-17.13	-42.84	3.17	-1.26	-28.66	-0.21	-12.73	1.57	0.15	28.42	-0.15	-1.94	-16.03	11.64	-9.19	-11.49	-10.59	-0.15	32.07	0.16	3.38	-20.16	-3.64	-4.64	2.35	-2.26	-8.64	0.53	-0.83	29.95	20.19	-3.39	0.30	-47.29	0.47	-18.33	9.01	-27.13	21.40	-3.68	-9.55	-47.07	28.55	11.74	-0.31	-49.43	-0.49	9.07	22.04	21.68	13.08	-21.83	-2.16	-15.14	26.12	5.02
-8.06	-17.15	-42.86	3.27	-1.25	-28.76	-0.27	-12.86	1.64	0.15	28.51	-0.15	-1.90	-16.05	11.75	-9.32	-11.72	-10.63	-0.15	32.31	0.16	3.42	-20.22	-3.41	-4.72	2.32	-2.10	-8.61	0.61	-1.06	29.88	20.27	-3.33	0.30	-47.38	0.47	-18.36	8.91	-27.06	21.42	-3.66	-9.50	-47.06	28.57	11.72	-0.31	-49.43	-0.49	9.16	22.03	21.79	12.92	-21.93	-2.15	-14.84	26.19	4.87
-8.07	-17.15	-42.87	3.19	-1.24	-28.78	-0.11	-12.87	1.87	0.15	28.60	-0.15	-1.83	-16.09	11.80	-9.19	-11.69	-10.53	-0.15	32.30	0.16	3.44	-20.21	-3.37	-4.61	2.36	-2.01	-8.58	0.69	-1.31	29.75	20.34	-3.23	0.30	-47.38	0.47	-18.38	8.71	-27.00	21.32	-3.59	-9.37	-46.82	28.60	11.47	-0.31	-49.21	-0.49	9.21	21.88	21.99	12.78	-22.06	-2.16	-14.57	26.31	4.74
-8.10	-17.14	-42.87	2.84	-1.25	-28.68	0.34	-12.76	2.27	0.15	28.75	-0.15	-1.76	-16.16	11.60	-8.74	-11.33	-10.29	-0.15	31.98	0.16	3.43	-20.10	-3.57	-4.24	2.52	-2.02	-8.58	0.75	-1.50	29.62	20.36	-3.15	0.30	-47.32	0.47	-18.43	8.52	-26.98	20.89	-3.45	-9.10	-46.13	28.67	10.92	-0.31	-48.84	-0.48	9.24	21.63	22.28	12.68	-22.21	-2.18	-14.41	26.48	4.67
-8.15	-17.12	-42.85	2.25	-1.29	-28.47	1.04	-12.46	2.74	0.15	28.88	-0.15	-1.82	-16.23	11.00	-8.01	-10.61	-9.98	-0.15	31.34	0.16	3.39	-19.88	-3.91	-3.67	2.82	-2.12	-8.68	0.72	-1.39	29.65	20.25	-3.25	0.30	-47.27	0.47	-18.52	8.47	-27.03	20.61	-3.36	-8.94	-45.70	28.70	10.53	-0.31	-48.54	-0.48	9.26	21.40	22.48	12.68	-22.32	-2.22	-14.44	26.63	4.67
-8.20	-17.10	-42.84	1.71	-1.35	-28.28	1.65	-12.16	3.03	0.15	28.96	-0.15	-1.95	-16.28	10.42	-7.36	-9.93	-9.75	-0.15	30.73	0.15	3.33	-19.67	-4.22	-3.15	3.16	-2.23	-8.82	0.64	-1.13	29.80	20.08	-3.49	0.30	-47.22	0.47	-18.56	8.46	-27.05	20.57	-3.36	-8.96	-45.68	28.68	10.48	-0.31	-48.52	-0.48	9.30	21.31	22.47	12.74	-22.38	-2.25	-14.60	26.66	4.71
-8.22	-17.09	-42.85	1.42	-1.40	-28.17	1.95	-12.00	3.09	0.15	29.01	-0.15	-2.06	-16.29	10.08	-7.02	-9.56	-9.66	-0.15	30.40	0.15	3.30	-19.55	-4.35	-2.85	3.41	-2.27	-8.93	0.55	-0.83	29.97	19.90	-3.78	0.30	-47.28	0.47	-18.53	8.56	-27.03	20.76	-3.46	-9.15	-46.05	28.61	10.72	-0.31	-48.77	-0.48	9.44	21.39	22.25	12.86	-22.37	-2.27	-14.82	26.54	4.78
-8.22	-17.09	-42.86	1.53	-1.41	-28.19	1.78	-12.07	2.85	0.15	28.99	-0.15	-2.11	-16.27	10.18	-7.17	-9.71	-9.77	-0.15	30.56	0.15	3.31	-19.59	-4.21	-2.91	3.48	-2.19	-8.96	0.48	-0.62	30.07	19.77	-4.01	0.30	-47.40	0.47	-18.43	8.69	-26.99	21.10	-3.62	-9.45	-46.65	28.51	11.07	-0.31	-49.22	-0.49	9.66	21.60	21.91	13.02	-22.30	-2.26	-15.03	26.27	4.84
-8.19	-17.12	-42.90	2.01	-1.37	-28.35	1.24	-12.37	2.43	0.15	28.97	-0.15	-2.12	-16.23	10.64	-7.72	-10.37	-10.01	-0.15	31.20	0.16	3.41	-19.80	-3.71	-3.30	3.33	-1.98	-8.86	0.45	-0.55	30.02	19.72	-4.05	0.30	-47.56	0.47	-18.31	8.89	-26.97	21.35	-3.74	-9.68	-46.99	28.50	11.18	-0.31	-49.71	-0.49	9.91	21.89	21.68	13.20	-22.19	-2.21	-15.17	25.89	4.91
-8.16	-17.15	-42.94	2.57	-1.29	-28.54	0.65	-12.80	2.06	0.15	29.01	-0.15	-2.09	-16.22	11.16	-8.35	-11.19	-10.24	-0.15	31.98	0.16	3.58	-20.05	-3.01	-3.77	3.06	-1.74	-8.71	0.44	-0.54	29.90	19.71	-4.00	0.30	-47.78	0.48	-18.23	9.21	-26.98	21.33	-3.77	-9.74	-46.93	28.58	11.08	-0.32	-50.12	-0.49	10.16	22.25	21.62	13.37	-21.99	-2.16	-15.26	25.44	4.97
-8.13	-17.18	-42.98	3.08	-1.19	-28.70	0.16	-13.21	1.78	0.15	29.08	-0.15	-2.06	-16.22	11.60	-8.89	-11.95	-10.42	-0.15	32.67	0.16	3.80	-20.27	-2.25	-4.17	2.79	-1.54	-8.55	0.44	-0.54	29.74	19.72	-3.89	0.30	-48.01	0.48	-18.20	9.61	-26.99	21.34	-3.76	-9.73	-46.85	28.67	10.90	-0.32	-50.45	-0.50	10.38	22.65	21.66	13.50	-21.74	-2.13	-15.32	24.96	5.00
-8.12	-17.21	-43.00	3.41	-1.08	-28.79	-0.12	-13.55	1.63	0.15	29.17	-0.15	-2.04	-16.24	11.87	-9.21	-12.49	-10.50	-0.15	33.13	0.16	3.98	-20.41	-1.72	-4.39	2.60	-1.44	-8.46	0.42	-0.52	29.63	19.73	-3.78	0.31	-48.25	0.48	-18.29	10.07	-26.96	21.20	-3.69	-9.60	-46.62	28.80	10.74	-0.32	-50.72	-0.50	10.59	23.11	21.67	13.54	-21.48	-2.13	-15.34	24.49	5.00
-8.10	-17.22	-43.03	3.62	-0.99	-28.82	-0.29	-13.83	1.53	0.15	29.26	-0.15	-2.00	-16.25	12.08	-9.41	-12.88	-10.58	-0.15	33.43	0.16	3.98	-20.51	-1.64	-4.48	2.50	-1.42	-8.48	0.40	-0.45	29.63	19.70	-3.70	0.31	-48.53	0.48	-18.50	10.54	-26.86	21.06	-3.61	-9.45	-46.48	28.88	10.75	-0.32	-50.96	-0.50	10.79	23.44	21.46	13.43	-21.41	-2.14	-15.24	24.23	4.91
-8.09	-17.24	-43.05	3.77	-0.94	-28.82	-0.42	-14.02	1.44	0.15	29.34	-0.15	-1.96	-16.25	12.22	-9.58	-13.13	-10.72	-0.15	33.66	0.16	3.87	-20.59	-1.81	-4.53	2.50	-1.44	-8.57	0.38	-0.36	29.73	19.69	-3.68	0.31	-48.79	0.48	-18.79	10.88	-26.75	20.97	-3.56	-9.33	-46.44	28.93	10.86	-0.32	-51.14	-0.50	10.95	23.54	21.09	13.22	-21.53	-2.14	-14.98	24.25	4.76
-8.07	-17.25	-43.07	3.87	-0.95	-28.78	-0.54	-14.13	1.36	0.15	29.39	-0.15	-1.94	-16.23	12.30	-9.76	-13.28	-10.94	-0.15	33.84	0.16	3.72	-20.67	-2.07	-4.58	2.58	-1.48	-8.72	0.35	-0.27	29.93	19.69	-3.71	0.31	-49.02	0.49	-19.08	11.02	-26.66	20.95	-3.53	-9.27	-46.50	28.96	11.04	-0.32	-51.27	-0.50	11.04	23.37	20.63	12.93	-21.86	-2.14	-14.57	24.54	4.55
-8.07	-17.25	-43.08	3.93	-1.05	-28.69	-0.66	-14.08	1.31	0.15	29.36	-0.15	-1.95	-16.20	12.26	-9.95	-13.25	-11.19	-0.15	33.96	0.16	3.62	-20.73	-2.18	-4.65	2.76	-1.53	-8.85	0.34	-0.23	30.19	19.76	-3.85	0.31	-49.21	0.49	-19.29	10.93	-26.65	21.00	-3.53	-9.27	-46.59	28.98	11.18	-0.33	-51.32	-0.51	11.02	23.01	20.27	12.67	-22.25	-2.15	-14.13	24.94	4.33
-8.07	-17.25	-43.08	3.95	-1.17	-28.62	-0.72	-13.95	1.28	0.15	29.29	-0.15	-1.95	-16.15	12.23	-10.05	-13.15	-11.32	-0.15	33.99	0.16	3.57	-20.76	-2.23	-4.73	2.96	-1.55	-8.93	0.34	-0.22	30.41	19.87	-4.07	0.31	-49.37	0.49	-19.37	10.70	-26.68	21.05	-3.52	-9.25	-46.60	28.99	11.22	-0.32	-51.25	-0.50	10.93	22.61	20.09	12.49	-22.47	-2.18	-13.78	25.16	4.13
